<?xml version="1.0" encoding="utf-8"?>
<!-- Svg Vector Icons : http://www.onlinewebfonts.com/icon -->
<!DOCTYPE svg PUBLIC "-//W3C//DTD SVG 1.1//EN" "http://www.w3.org/Graphics/SVG/1.1/DTD/svg11.dtd">
<svg version="1.1" xmlns="http://www.w3.org/2000/svg" xmlns:xlink="http://www.w3.org/1999/xlink" x="0px" y="0px" viewBox="0 0 1000 1000" enable-background="new 0 0 1000 1000" xml:space="preserve">
<metadata> Svg Vector Icons : http://www.onlinewebfonts.com/icon </metadata>
<g><g transform="translate(0.000000,511.000000) scale(0.100000,-0.100000)"><path d="M4707,5006.5c-1356-75.1-2651.4-748.9-3521.3-1831.6c-315-392.2-582-851.1-765.6-1320.5C94.6,1017.9,13.3,45.8,194.8-853.3c348.4-1735.6,1668.9-3193.8,3366.9-3721.6c1189.1-369.2,2449-271.2,3575.5,279.5c527.8,258.7,970,582,1387.2,1015.9c753.1,780.2,1214.1,1741.9,1347.6,2801.6c37.6,310.8,37.6,892.9-2.1,1203.7c-135.6,1063.9-636.3,2073.6-1408.1,2843.3C7452.2,4578.9,6127.6,5085.8,4707,5006.5z M5624.8,4662.3c988.8-123.1,1908.8-577.8,2630.5-1299.6c469.4-469.4,780.2-945,1026.4-1566.6c340-859.5,402.6-1910.9,171.1-2826.7C8900-3223.1,6841-4670.8,4571.4-4462.2C2399.8-4262,695.4-2595.2,440.9-419.4c-179.4,1527,421.4,3064.5,1572.9,4034.5C3019.3,4462.1,4285.6,4827.1,5624.8,4662.3z"/><path d="M5883.5,2933c-33.4-52.2-31.3-58.4,60.5-250.3c108.5-225.3,219-396.4,392.2-607.1l121-148.1l-85.5-25c-181.5-56.3-371.3-321.3-458.9-646.7c-58.4-214.9-62.6-655-6.3-867.8c83.4-325.4,229.5-554.9,408.9-644.6c60.5-29.2,144-54.2,185.7-54.2c102.2,0,277.4,91.8,354.6,183.6c294.1,358.8,375.5,1063.9,179.4,1552.1c-43.8,104.3-45.9,121-16.7,108.5c20.9-8.3,114.7-43.8,212.8-77.2c279.5-96,790.6-106.4,901.2-14.6c39.6,31.3,43.8,45.9,27.1,96l-20.9,60.5h-344.2c-319.2,0-356.7,4.2-511.1,56.3c-475.6,160.6-894.9,571.6-1161.9,1134.8c-43.8,93.9-93.9,177.3-112.6,183.6C5948.2,2995.5,5919,2985.1,5883.5,2933z"/><path d="M4045.7,2949.6c-14.6-4.2-64.7-89.7-110.6-187.7c-108.5-231.5-237.8-410.9-406.8-563.2c-335.9-302.5-853.2-521.5-1401.8-590.4c-244.1-31.3-277.4-45.9-277.4-123.1c0-93.9,41.7-114.7,214.9-98.1c252.4,25,646.7,121,855.3,208.6c75.1,29.2,98,20.9,56.3-20.9c-33.4-33.4-121-285.8-146-421.4c-33.4-183.6-27.1-552.8,10.4-734.3c64.7-310.8,252.4-607.1,438.1-690.5c302.5-137.7,613.3,123.1,753.1,627.9c29.2,102.2,37.5,212.8,37.5,448.5c2.1,342.1-35.4,525.7-146,744.7c-66.7,133.5-219,296.2-306.6,331.7c-37.6,14.6-70.9,29.2-75.1,31.3c-4.2,4.2,62.6,73,148.1,152.3c296.2,277.5,554.9,734.3,479.8,849C4150,2943.4,4079,2964.2,4045.7,2949.6z"/><path d="M4642.3-1061.9c-452.7-70.9-928.3-264.9-1353.9-546.6c-212.8-141.8-509-383.8-642.5-523.6c-116.8-125.2-135.6-191.9-70.9-250.3c70.9-64.7,133.5-43.8,254.5,81.4c425.6,433.9,1045.1,796.9,1600,938.7C5362-1126.6,6240.2-1412.4,7083-2228c152.3-148.1,208.6-189.8,254.5-189.8c56.3,0,123.1,62.6,123.1,116.8c0,39.6-127.2,181.5-310.8,350.5c-465.2,427.6-930.4,692.6-1462.3,830.3c-208.6,54.2-283.7,62.6-584.1,68.8C4913.5-1047.3,4707-1051.5,4642.3-1061.9z"/></g></g>
</svg>